PathFileType	4	(X/Y/Z)	Run_400 02
DataRate	CameraRate	NumFrames	NumMarkers	Units	OrigDataRate	OrigDataStartFrame	OrigNumFrames
100	100	6	42	mm	100	409	128
Frame#	Time	LASI			RASI			LPSI			RPSI			RTH1			RTH3			LTH1			LTH2			LTH3			RTB1			RTB2			LTB1			LTB2			RCAL			RTOE			LCAL			LTOE			LACR			RACR			CLAV			C7			RUA1			RUA2			RUA3			RLEL			RMEL			LUA1			LUA2			LUA3			LLEL			LMEL			RFAsuperior			RFAradius			RFAulna			LFAsuperior			LFAradius			LFAulna			RTH2			RTB3			RMT5			LMT5			LTB3		
		X1	Y1	Z1	X2	Y2	Z2	X3	Y3	Z3	X4	Y4	Z4	X5	Y5	Z5	X6	Y6	Z6	X7	Y7	Z7	X8	Y8	Z8	X9	Y9	Z9	X10	Y10	Z10	X11	Y11	Z11	X12	Y12	Z12	X13	Y13	Z13	X14	Y14	Z14	X15	Y15	Z15	X16	Y16	Z16	X17	Y17	Z17	X18	Y18	Z18	X19	Y19	Z19	X20	Y20	Z20	X21	Y21	Z21	X22	Y22	Z22	X23	Y23	Z23	X24	Y24	Z24	X25	Y25	Z25	X26	Y26	Z26	X27	Y27	Z27	X28	Y28	Z28	X29	Y29	Z29	X30	Y30	Z30	X31	Y31	Z31	X32	Y32	Z32	X33	Y33	Z33	X34	Y34	Z34	X35	Y35	Z35	X36	Y36	Z36	X37	Y37	Z37	X38	Y38	Z38	X39	Y39	Z39	X40	Y40	Z40	X41	Y41	Z41	X42	Y42	Z42	

409	  4.090000	795.637542	1038.267923	-454.481824	787.680898	1053.263951	-209.276033	623.791043	1132.896089	-381.996187	616.782096	1127.194139	-297.713219	756.121533	920.706926	-144.321437	815.572620	684.897618	-180.018084	701.073299	929.335758	-517.736367	717.601504	794.723674	-490.441193	588.777662	697.477416	-486.298496	953.243034	477.096546	-237.425081	928.946594	366.110126	-193.993714	469.551696	501.418579	-418.926127	372.831593	532.237472	-476.697583	906.885124	127.601933	-294.782100	1135.169701	155.972150	-273.459529	119.447003	543.847523	-367.672495	107.351970	312.334247	-352.474426	808.114887	1581.047306	-473.757898	715.276948	1574.024611	-159.794778	823.484444	1533.958878	-278.943402	702.640775	1604.554349	-349.835227	609.748324	1514.071319	-91.192220	533.837322	1464.390422	-145.588172	526.850029	1432.534656	-70.632653	468.568130	1350.162667	-46.000983	453.150835	1338.191799	-126.951026	811.482848	1494.124873	-585.988278	753.373280	1411.550979	-611.800366	821.504123	1392.253462	-649.391321	847.981177	1312.349846	-690.164253	787.667098	1264.630017	-669.371286	498.195748	1274.257061	-34.622173	656.512142	1142.326002	-65.563329	594.955006	1106.156476	-62.818337	920.721807	1285.023138	-591.921022	950.517107	1318.032720	-441.931416	962.967509	1252.356537	-456.585680	848.513174	803.627158	-160.505403	992.907487	281.679564	-250.736551	1108.973061	101.863355	-197.738397	 52.564320	339.214729	-420.610624	269.461743	453.522717	-398.155890	
410	  4.100000	797.326181	1034.467582	-453.493677	787.577917	1047.865167	-208.313653	623.862515	1127.200794	-382.873840	616.360653	1121.518816	-298.853032	752.851977	913.266583	-141.470069	807.895098	677.531166	-182.641057	704.760769	923.696147	-517.365749	723.391413	789.409430	-489.878486	597.204586	690.127395	-486.149474	947.208979	471.686928	-239.128778	924.075184	359.792380	-196.674608	474.724136	500.708749	-418.416486	380.647097	539.930558	-475.870168	906.607335	123.566568	-301.748644	1133.894712	148.683395	-269.677750	129.603219	572.534613	-364.534919	 98.902782	342.515396	-359.392910	806.855510	1577.484278	-472.634335	714.868163	1568.653463	-157.821949	822.908808	1529.659104	-277.623007	701.562795	1600.555141	-347.708580	609.125839	1506.625392	-89.290166	534.208871	1456.737060	-144.140424	528.007400	1424.610013	-69.159373	470.753543	1340.837483	-44.070803	455.860460	1328.761875	-124.757957	807.422514	1491.446930	-585.258003	748.056934	1409.505408	-610.186941	815.557037	1389.338091	-648.766973	840.468913	1308.918706	-690.294340	778.882827	1262.653642	-669.595919	501.675290	1265.710011	-32.270304	661.946735	1135.694602	-63.045135	600.757869	1098.689802	-60.755627	914.064318	1275.670044	-594.230768	948.185117	1302.773072	-443.824611	956.536012	1237.270998	-460.503976	841.220103	794.613791	-158.211108	990.181927	276.708333	-252.634573	1103.957369	 93.703853	-196.323467	 47.497477	376.566126	-426.609808	271.214556	470.269827	-397.656580	
411	  4.110000	798.345600	1029.735410	-452.350641	786.772405	1041.512120	-207.123431	623.337710	1120.402709	-383.431737	615.460193	1115.262931	-299.587902	748.778192	906.166989	-139.461826	802.311294	671.392248	-185.708331	708.011730	916.840485	-516.951038	729.363639	783.266886	-489.594624	605.977895	681.546985	-486.397506	940.513405	464.654676	-240.857429	916.740206	352.392187	-199.173339	481.788895	499.031476	-418.679223	391.053424	546.997507	-475.328732	898.991635	118.327277	-307.470566	1125.641678	136.763288	-268.783252	143.562818	598.562865	-361.105744	 96.072519	371.252889	-367.814073	805.360434	1572.917758	-472.081598	714.377372	1561.903120	-155.811314	822.373047	1524.331482	-276.264056	700.434457	1595.109878	-345.580702	609.154496	1497.443115	-86.997565	534.404953	1446.918602	-141.859008	529.827935	1414.193689	-66.986497	474.077621	1329.159614	-41.381771	459.334032	1317.131883	-121.610704	803.138726	1487.322324	-584.413779	742.365604	1406.439666	-608.912133	809.084990	1385.204671	-648.609234	832.050822	1304.433461	-690.583497	768.922255	1259.898935	-669.561424	506.408837	1254.892285	-29.341441	668.793389	1127.231833	-60.435536	608.127050	1089.199774	-58.680628	906.480155	1264.852138	-597.217165	945.147943	1285.247498	-446.604619	949.381645	1220.200678	-465.640009	835.906054	787.913494	-156.216837	983.146920	269.263493	-254.719570	1092.766557	 81.024684	-197.832911	 48.790004	412.437589	-434.019543	276.498206	485.634913	-397.789229	
412	  4.120000	798.653096	1024.154620	-451.446244	785.492601	1034.515794	-206.052560	622.312264	1112.735736	-383.833911	614.264338	1108.534175	-299.957324	744.314587	899.304883	-139.186084	798.449486	665.758625	-187.971820	711.030616	909.130429	-516.801818	735.497421	776.525895	-489.669643	615.247692	671.929220	-487.242973	933.460300	455.514112	-241.932981	907.000799	343.647425	-201.004481	490.946696	496.312858	-419.848267	404.246601	552.874385	-475.442637	883.624795	112.108488	-310.878742	1110.584646	120.923120	-273.522102	160.658858	621.778994	-358.418187	 98.983949	397.997297	-376.119218	803.532530	1567.456960	-472.088025	713.990435	1553.840922	-153.791878	821.864807	1518.009476	-274.887304	699.416192	1588.403022	-343.484861	610.277240	1487.146425	-83.936667	534.808570	1434.980475	-138.689623	532.564668	1401.433779	-64.137130	478.821209	1315.848953	-37.769378	463.598997	1303.526176	-117.619795	798.541259	1481.769144	-583.752025	736.236096	1402.321462	-607.902558	802.121895	1379.965623	-648.880987	822.889390	1299.061430	-690.977249	757.996769	1256.503220	-669.298981	512.446021	1242.063213	-25.956717	677.158639	1117.497773	-57.701265	617.141102	1078.243621	-56.544091	897.959772	1252.809061	-600.797640	941.128716	1265.787521	-450.245238	941.383422	1201.489937	-471.990624	833.123015	782.442686	-155.475519	971.987528	259.198758	-256.708799	1076.009428	 66.494290	-202.679156	 56.430647	445.278037	-441.806536	285.339428	499.363137	-398.554109	
413	  4.130000	798.279180	1017.767370	-451.060223	784.096473	1027.224834	-205.495774	620.945729	1104.391150	-384.317578	612.864059	1101.251296	-300.258630	740.546137	892.129043	-140.801563	796.200988	659.694319	-188.585636	713.862291	900.841003	-517.025689	741.938006	769.239357	-490.130111	625.441090	661.346394	-488.798253	926.104781	444.295062	-242.899917	895.407271	333.516047	-202.673414	502.412759	492.550462	-421.859896	420.165630	556.888373	-476.293097	859.715043	105.423650	-312.696268	1088.341563	103.136572	-282.840735	180.421305	642.138618	-357.225277	107.494174	422.213361	-383.345802	801.353298	1561.023801	-472.138446	713.873773	1544.575346	-151.749019	821.399102	1510.701540	-273.539770	698.550005	1580.621757	-341.417596	612.392122	1475.696953	-80.308039	535.766491	1421.271530	-134.552556	536.365821	1386.621179	-60.623018	484.919629	1301.230113	-33.296619	468.679536	1288.172374	-112.953509	793.574720	1475.036593	-583.385297	729.670407	1397.202062	-606.949852	794.729430	1373.785355	-649.284243	813.165374	1292.997643	-691.453224	746.566839	1252.523538	-669.043549	519.790854	1227.483001	-22.196795	687.160752	1106.941885	-54.995652	627.913521	1066.460538	-54.186235	888.541489	1239.802290	-604.939779	935.892435	1244.577627	-454.844976	932.360854	1181.339041	-479.546675	832.867486	776.980853	-156.130176	956.122256	246.837556	-259.751647	1052.516752	 54.460575	-208.667907	 69.996531	473.928336	-449.334125	297.713609	511.203797	-399.787904	
414	  4.140000	797.353278	1010.614599	-451.032658	782.777120	1019.840642	-205.518415	619.186851	1095.421527	-384.881963	611.044091	1093.089975	-300.616440	738.615892	884.410273	-143.628499	795.369008	652.545426	-187.710265	716.398067	891.962894	-517.384397	748.852674	761.342127	-490.906671	636.879913	649.845355	-490.905307	918.039691	431.658083	-245.254110	882.256962	322.464078	-205.502809	516.363139	487.887502	-424.372178	438.531823	558.514174	-477.783575	827.346338	 98.129435	-314.881097	1058.745870	 87.119699	-292.605611	202.800818	659.466912	-357.813377	121.018325	443.351041	-389.174537	798.893982	1553.588235	-471.763221	714.141408	1534.279839	-149.622955	821.127878	1502.392165	-272.245449	697.690615	1571.856791	-339.288218	615.039497	1462.496171	-76.714154	537.427467	1406.310710	-129.271557	541.208491	1370.102616	-56.382681	492.079778	1285.166417	-28.305476	474.634447	1271.302092	-107.822485	788.243215	1467.497834	-583.171779	722.771089	1391.257692	-605.852762	787.014487	1366.867062	-649.482151	803.051688	1286.448296	-692.028361	735.083201	1248.004299	-669.052164	528.486738	1211.499346	-18.113298	698.815882	1095.802960	-52.697161	640.524329	1054.235971	-51.517834	878.297349	1226.131108	-609.635748	929.233079	1221.748894	-460.532527	922.224134	1159.859142	-488.321314	834.049715	770.825627	-157.646347	934.737100	233.219738	-265.598501	1021.399993	 48.254867	-212.957298	 88.525331	497.719877	-456.151520	313.456290	520.862714	-401.259610	
